# Blender v2.93.0 OBJ File: 'cow.blend'
# www.blender.org
mtllib cow.mtl
o Cube
v 1.588582 -0.664024 -2.546390
v 1.263666 -0.815220 1.256666
v -0.879980 -0.664024 -2.546390
v -0.644088 -0.834451 1.236295
v 0.281884 -0.587874 1.564169
v -1.050258 0.231563 1.095459
v 1.708952 0.300316 1.050172
v 0.281884 1.337486 1.429627
v 0.281884 2.090530 -2.526917
v 0.281884 -0.485343 -2.816903
v 0.281884 0.604673 1.564169
v 1.398362 1.763955 -2.119785
v 1.265692 1.292364 0.986988
v -0.635241 1.292364 0.986988
v -0.768375 1.763955 -2.119785
v 0.923026 -0.659959 -2.816903
v 0.923026 -0.834451 1.447118
v 1.131132 2.037807 -2.417211
v 0.923026 0.333558 1.564169
v 1.031244 1.360989 1.267352
v -0.359259 -0.659959 -2.816903
v -0.359259 -0.834451 1.440911
v -0.400793 1.360989 1.267352
v -0.534547 0.333558 1.564169
v -0.501145 2.037807 -2.417211
v -0.953946 0.427250 -2.013978
v 1.595194 0.427250 -2.013978
v 0.281884 -0.295858 -2.742790
v 0.923026 0.128356 -2.742790
v -0.534547 0.128356 -2.742790
v 0.923026 1.816305 -3.306302
v 0.281884 2.082106 -3.306302
v -0.359259 1.816305 -3.306302
v 0.281884 0.565910 -3.233830
v 0.604462 0.565910 -3.233830
v -0.040694 0.565910 -3.233830
v -0.835316 -0.616741 -2.300742
v 0.281884 2.167332 -2.118826
v 1.531708 -0.603265 -2.300742
v 1.617307 1.718387 -1.888146
v -0.972192 1.718387 -1.888146
v 0.281884 -0.869392 -2.507506
v 1.131132 2.092984 -2.124026
v 0.903361 -0.754863 -2.507506
v -0.337421 -0.732489 -2.507506
v -0.501145 2.092984 -2.124026
v -1.193734 0.375159 -1.727077
v 1.852780 0.375159 -1.727077
v -0.898732 -0.752939 0.930910
v 0.281884 1.734324 0.945783
v -0.814054 1.339764 0.880582
v 0.281884 -0.879022 1.029263
v 1.031244 1.611115 0.962386
v 0.989259 -0.905208 1.029263
v -0.411272 -0.889514 1.029263
v -0.400793 1.611115 0.962386
v 1.852780 0.300357 0.522030
v 1.433964 -0.733727 0.960212
v 1.457777 1.339764 0.880582
v -1.193734 0.300357 0.522030
v -0.644088 -3.216800 1.029263
v -0.644088 -3.216800 1.564169
v -0.359259 -3.216800 -2.958664
v -0.644088 -3.216800 -2.958664
v 0.923026 -3.216800 1.564169
v 1.240973 -3.216800 1.564169
v 1.240973 -3.216800 -2.507506
v 1.240973 -3.216800 -2.958664
v 0.923026 -3.216800 -2.958664
v 0.923026 -3.216800 1.029263
v -0.359259 -3.216800 1.564169
v -0.359259 -3.216800 1.029263
v -0.644088 -3.216800 -2.507506
v 0.923026 -3.216800 -2.507506
v -0.359259 -3.216800 -2.507506
v 1.240973 -3.216800 1.029263
v 0.923026 1.708087 -3.723064
v 0.281884 2.044669 -3.723064
v -0.359259 1.708087 -3.723064
v 0.281884 0.606207 -3.938937
v 0.523414 0.606207 -3.938937
v 0.040354 0.606207 -3.938937
v 0.923026 1.499630 -3.378259
v 0.923026 0.762715 -3.450217
v -0.359259 1.499630 -3.378259
v -0.359259 0.762715 -3.450217
v 1.281260 1.610098 -3.464512
v 1.281260 1.497966 -3.723064
v 1.281260 1.289510 -3.653227
v -0.709684 1.501719 -3.306302
v -0.709684 1.532699 -3.723064
v -0.709684 1.316738 -3.378259
v 1.550193 1.531111 -3.469208
v 0.923026 1.006294 -3.846082
v -0.359259 1.006294 -3.846082
v 0.508408 0.776910 -4.616296
v 0.281884 0.584294 -4.662724
v 0.281884 1.002665 -4.554787
v -0.038249 0.774135 -4.614752
v 1.306439 -0.609028 -0.779305
v 1.561070 1.550133 -0.501385
v -1.222737 0.165916 -0.602026
v -0.621545 -0.621966 -0.779305
v 0.281261 1.979997 -0.517152
v -0.916344 1.550133 -0.501385
v 0.287909 -0.771865 -0.745177
v 1.095938 1.879318 -0.511340
v 0.813855 -0.736899 -0.745177
v -0.231551 -0.721832 -0.745177
v -0.465686 1.879318 -0.511340
v 1.882370 0.165916 -0.602025
v -0.718223 -0.373178 -0.002100
v 0.286395 1.830796 0.259388
v -0.693413 1.478600 0.180793
v -0.908243 1.575563 -3.469208
v 0.954556 1.735151 0.268964
v 1.317631 -0.507067 0.141839
v -0.735198 -0.480837 0.141839
v -0.324344 1.735151 0.268964
v 1.641483 0.300726 -0.015374
v 1.412089 -0.024295 -0.002100
v 1.335477 1.478600 0.180793
v -0.986505 0.300726 -0.015375
v 0.286395 -1.330589 0.141839
v 0.281884 -0.882971 1.029263
v 0.877891 -0.968142 0.141839
v 0.989259 -0.909157 1.029263
v -0.295458 -0.953149 0.141839
v -0.411272 -0.893462 1.029263
v 0.287909 -0.798448 -0.745177
v -0.231551 -0.748415 -0.745177
v 0.813855 -0.763482 -0.745177
vt 0.468750 0.656250
vt 0.625000 0.812500
vt 0.625000 0.750000
vt 0.500000 0.625000
vt 0.500000 0.812500
vt 0.560684 0.812500
vt 0.560684 0.875000
vt 0.500000 0.875000
vt 0.375000 0.750000
vt 0.375000 0.812500
vt 0.375000 0.812500
vt 0.375000 0.750000
vt 0.471645 0.735216
vt 0.568290 0.750000
vt 0.560684 0.750000
vt 0.467842 0.750000
vt 0.568290 0.812500
vt 0.568290 0.875000
vt 0.371792 0.762469
vt 0.618584 1.000000
vt 0.625000 1.000000
vt 0.375000 0.750000
vt 0.375000 0.875000
vt 0.375000 0.937500
vt 0.500000 0.937500
vt 0.500000 1.000000
vt 0.375000 1.000000
vt 0.568290 0.937500
vt 0.568290 1.000000
vt 0.560684 1.000000
vt 0.560684 0.937500
vt 0.187500 0.720433
vt 0.250000 0.720433
vt 0.250000 0.750000
vt 0.187500 0.750000
vt 0.437500 0.687500
vt 0.437500 0.687500
vt 0.468750 0.656250
vt 0.500000 0.750000
vt 0.312500 0.720433
vt 0.312500 0.750000
vt 0.625000 0.875000
vt 0.625000 0.812500
vt 0.625000 0.875000
vt 0.625000 0.937500
vt 0.406250 0.718750
vt 0.312500 0.500000
vt 0.375000 0.500000
vt 0.375000 0.500000
vt 0.312500 0.500000
vt 0.125000 0.500000
vt 0.187500 0.500000
vt 0.250000 0.500000
vt 0.125000 0.524938
vt 0.375000 0.720433
vt 0.406250 0.718750
vt 0.406250 0.718750
vt 0.437500 0.687500
vt 0.625000 0.937500
vt 0.625000 0.875000
vt 0.625000 0.937500
vt 0.552083 0.864583
vt 0.479167 0.791667
vt 0.520833 0.708333
vt 0.572917 0.760417
vt 0.496792 0.637469
vt 0.375000 0.524938
vt 0.121948 0.620170
vt 0.360906 0.812675
vt 0.618584 0.937500
vt 0.618584 0.875000
vt 0.312500 0.720433
vt 0.312500 0.750000
vt 0.312500 0.524938
vt 0.250000 0.524938
vt 0.618584 0.812500
vt 0.618584 0.750000
vt 0.187500 0.524938
vt 0.593486 1.000746
vt 0.375000 0.720433
vt 0.342842 0.875000
vt 0.346645 0.860216
vt 0.125000 0.750000
vt 0.125000 0.720433
vt 0.360798 0.669936
vt 0.485214 0.714654
vt 0.580696 0.871973
vt 0.580690 0.930853
vt 0.139657 0.668968
vt 0.195564 0.671351
vt 0.250000 0.720433
vt 0.312500 0.720433
vt 0.572749 0.746924
vt 0.580694 0.818806
vt 0.304753 0.671357
vt 0.304753 0.671357
vt 0.562983 0.987972
vt 0.125000 0.720433
vt 0.187500 0.720433
vt 0.187500 0.750000
vt 0.125000 0.750000
vt 0.125000 0.500000
vt 0.187500 0.500000
vt 0.187500 0.524938
vt 0.125000 0.524938
vt 0.375000 0.524938
vt 0.312500 0.524938
vt 0.375000 1.000000
vt 0.375000 0.937500
vt 0.000000 0.000000
vt 0.000000 0.000000
vt 0.000000 0.000000
vt 0.000000 0.000000
vt 0.625000 0.812500
vt 0.535959 0.723459
vt 0.500342 0.812842
vt 0.468750 0.656250
vt 0.000000 0.000000
vt 0.000000 0.000000
vt 0.000000 0.000000
vt 0.000000 0.000000
vt 0.625000 0.812500
vt 0.572917 0.760417
vt 0.625000 0.812500
vt 0.000000 0.000000
vt 0.000000 0.000000
vt 0.000000 0.000000
vt 0.000000 0.000000
vt 0.625000 0.937500
vt 0.552083 0.864583
vt 0.625000 0.937500
vt 0.000000 0.000000
vt 0.000000 0.000000
vt 0.572917 0.760417
vt 0.625000 0.812500
vt 0.373459 0.621712
vt 0.313061 0.622652
vt 0.593488 0.749193
vt 0.484868 0.686701
vt 0.593469 0.874779
vt 0.593464 0.812864
vt 0.593463 0.937074
vt 0.250314 0.622598
vt 0.186638 0.622666
vt 0.369127 0.848704
vt 0.187500 0.720433
vt 0.186638 0.622666
vt 0.195564 0.671351
vt 0.251246 0.671333
vt 0.250314 0.622598
vt 0.313061 0.622652
vt 0.625000 0.937500
vn 0.7364 0.0432 -0.6752
vn 0.1526 0.2264 0.9620
vn 0.2746 0.0837 0.9579
vn 0.8399 0.2789 0.4655
vn 0.1124 0.7683 0.6301
vn -0.7637 0.0519 -0.6435
vn 0.0710 -0.0494 0.9963
vn -0.6240 -0.1564 0.7656
vn -0.6073 0.4946 0.6217
vn -0.7063 0.3092 0.6369
vn 0.1487 -0.9313 0.3325
vn 0.2408 -0.5470 -0.8018
vn 0.5283 -0.0699 0.8462
vn 0.5990 0.4895 0.6337
vn -0.1578 -0.9267 0.3410
vn 0.6115 0.2361 0.7552
vn 0.2175 0.9629 -0.1598
vn -0.8264 0.0933 -0.5552
vn 0.2645 0.0862 -0.9605
vn -0.1444 0.2459 0.9585
vn -0.1232 0.7673 0.6293
vn -0.0641 -0.0568 0.9963
vn -0.7021 0.1327 -0.6996
vn -0.0292 0.1498 -0.9883
vn 0.0264 0.1545 -0.9876
vn -0.9389 -0.0122 -0.3441
vn 0.9085 -0.2694 0.3195
vn 0.5416 0.2564 -0.8006
vn 0.0000 -0.9984 -0.0571
vn -0.4200 0.8940 -0.1562
vn -0.9610 -0.0625 -0.2695
vn -0.2014 -0.5408 -0.8167
vn -0.2269 0.9620 -0.1519
vn 0.9676 -0.1329 -0.2147
vn 0.9348 0.0406 -0.3530
vn -0.8761 -0.4817 0.0221
vn -0.0917 0.9786 -0.1842
vn -0.9975 0.0123 -0.0703
vn -0.0376 -0.7897 -0.6124
vn 0.7378 0.5951 -0.3187
vn 0.0241 -0.8040 -0.5941
vn -0.7425 0.5992 -0.2993
vn -0.9809 0.1907 0.0391
vn 0.0846 0.9792 -0.1843
vn 0.7402 0.0527 -0.6703
vn 0.9798 -0.0280 0.1980
vn -0.8518 0.2687 0.4497
vn -0.9046 -0.2020 0.3753
vn 0.7911 -0.4962 -0.3578
vn -0.1622 0.9758 0.1464
vn -0.2747 -0.8900 -0.3638
vn 0.0000 0.0000 1.0000
vn 0.5568 0.8271 0.0765
vn 0.7259 -0.6865 -0.0424
vn -0.5688 0.8191 0.0741
vn 0.1482 0.9777 0.1485
vn 0.9163 0.3419 -0.2086
vn 0.6932 -0.6632 -0.2822
vn 0.0000 -1.0000 0.0000
vn -0.9997 -0.0032 -0.0262
vn -0.9934 -0.0907 0.0698
vn 0.2510 -0.0310 0.9675
vn 0.9868 -0.1330 0.0921
vn 0.9984 0.0096 -0.0554
vn 0.9996 -0.0035 -0.0290
vn -0.2090 -0.0287 0.9775
vn -0.9574 -0.0250 0.2877
vn -0.0880 -0.0096 -0.9961
vn 0.1242 -0.0124 -0.9922
vn -0.3175 0.0877 -0.9442
vn -0.3367 0.0888 0.9374
vn -0.0040 0.2498 -0.9683
vn 0.5291 0.4588 -0.7138
vn -0.9237 -0.3654 -0.1151
vn 0.4200 0.8940 -0.1562
vn 0.9237 -0.3654 -0.1151
vn 0.5655 0.5816 0.5848
vn -0.3216 0.3585 -0.8764
vn -0.4356 -0.8557 0.2792
vn 0.3992 -0.7808 -0.4806
vn 0.1921 -0.2706 0.9433
vn 0.5713 -0.8172 0.0757
vn 0.6527 0.6421 0.4021
vn -0.6827 0.2321 0.6929
vn -0.5299 -0.8436 -0.0868
vn 0.1328 0.5028 -0.8541
vn -0.2539 -0.8874 0.3848
vn -0.5204 0.4865 -0.7018
vn 0.5738 -0.8053 -0.1491
vn 0.2380 -0.9709 0.0264
vn 0.9788 0.2007 0.0405
vn 0.1038 0.9868 0.1243
vn -0.5820 0.8042 0.1201
vn -0.1619 -0.9862 0.0354
vn 0.5700 0.8127 0.1209
vn 0.1291 -0.9910 0.0355
vn -0.2315 -0.9725 0.0241
vn -0.1127 0.9858 0.1242
vn 0.8851 -0.4646 0.0277
vn -0.9279 0.1793 0.3269
vn -0.8249 -0.5164 0.2297
vn -0.8731 -0.3640 -0.3243
vn -0.9207 0.3311 -0.2067
vn 0.7289 -0.6813 0.0666
vn 0.9248 0.1881 0.3306
vn 0.1268 0.9727 0.1944
vn -0.5779 0.7742 0.2581
vn 0.5660 0.7832 0.2575
vn -0.7317 -0.6449 -0.2209
vn -0.5098 -0.8576 0.0685
vn -0.1382 0.9708 0.1959
vn 0.7189 -0.5828 0.3788
vn 0.2425 -0.9367 0.2528
vn -0.2679 -0.9310 0.2479
vn -0.3359 -0.8654 -0.3718
vn 0.3108 -0.8739 -0.3739
vn 0.7240 -0.6529 -0.2225
vn -0.0000 0.0000 -1.0000
vn -0.7339 -0.6776 -0.0472
vn 0.6687 0.2695 -0.6929
vn -0.2961 -0.9525 -0.0708
usemtl Material
s off
f 29/1/1 18/2/1 12/3/1 27/4/1
f 19/5/2 20/6/2 8/7/2 11/8/2
f 2/9/3 17/10/3 65/11/3 66/12/3
f 57/13/4 59/14/4 13/15/4 7/16/4
f 53/17/5 50/18/5 8/7/5 20/6/5
f 47/19/6 41/20/6 15/21/6 26/22/6
f 17/10/7 19/5/7 11/8/7 5/23/7
f 22/24/8 24/25/8 6/26/8 4/27/8
f 56/28/9 51/29/9 14/30/9 23/31/9
f 24/25/10 23/31/10 14/30/10 6/26/10
f 55/32/11 52/33/11 5/34/11 22/35/11
f 29/1/12 28/36/12 34/37/12 35/38/12
f 2/9/13 7/39/13 19/5/13 17/10/13
f 59/14/14 53/17/14 20/6/14 13/15/14
f 52/33/15 54/40/15 17/41/15 5/34/15
f 7/39/16 13/15/16 20/6/16 19/5/16
f 9/42/17 18/2/17 31/43/17 32/44/17
f 26/22/18 15/21/18 25/45/18 30/46/18
f 16/47/19 1/48/19 68/49/19 69/50/19
f 11/8/20 8/7/20 23/31/20 24/25/20
f 50/18/21 56/28/21 23/31/21 8/7/21
f 5/23/22 11/8/22 24/25/22 22/24/22
f 3/51/23 26/22/23 30/46/23 21/52/23
f 10/53/24 28/36/24 29/1/24 16/47/24
f 21/52/25 30/46/25 28/36/25 10/53/25
f 37/54/26 47/19/26 26/22/26 3/51/26
f 58/55/27 57/13/27 7/16/27 2/9/27
f 16/47/28 29/1/28 27/4/28 1/48/28
f 34/37/29 36/56/29 82/57/29 80/58/29
f 33/59/30 32/44/30 78/60/30 79/61/30
f 30/46/31 25/45/31 33/59/31 85/62/31 86/63/31 36/56/31
f 28/36/32 30/46/32 36/56/32 34/37/32
f 25/45/33 9/42/33 32/44/33 33/59/33
f 18/2/34 29/1/34 35/38/34 84/64/34 83/65/34 31/43/34
f 1/48/35 27/4/35 48/66/35 39/67/35
f 103/68/36 102/69/36 47/19/36 37/54/36
f 9/42/37 25/45/37 46/70/37 38/71/37
f 17/41/38 54/40/38 70/72/38 65/73/38
f 10/53/39 16/47/39 44/74/39 42/75/39
f 12/3/40 18/2/40 43/76/40 40/77/40
f 21/52/41 10/53/41 42/75/41 45/78/41
f 25/45/42 15/21/42 41/20/42 46/70/42
f 102/69/43 105/79/43 41/20/43 47/19/43
f 18/2/44 9/42/44 38/71/44 43/76/44
f 27/4/45 12/3/45 40/77/45 48/66/45
f 58/55/46 2/9/46 66/12/46 76/80/46
f 6/81/47 14/30/47 51/29/47 60/82/47
f 4/83/48 6/81/48 60/82/48 49/84/48
f 121/85/49 120/86/49 57/13/49 58/55/49
f 113/87/50 119/88/50 56/28/50 50/18/50
f 112/89/51 118/90/51 55/32/51 49/84/51
f 54/40/52 52/33/52 125/91/52 127/92/52
f 122/93/53 116/94/53 53/17/53 59/14/53
f 117/95/54 54/40/54 127/92/54 126/96/54
f 119/88/55 114/97/55 51/29/55 56/28/55
f 116/94/56 113/87/56 50/18/56 53/17/56
f 120/86/57 122/93/57 59/14/57 57/13/57
f 117/95/58 121/85/58 58/55/58 54/40/58
f 70/72/59 76/80/59 66/12/59 65/73/59
f 61/98/59 72/99/59 71/100/59 62/101/59
f 64/102/59 63/103/59 75/104/59 73/105/59
f 69/50/59 68/49/59 67/106/59 74/107/59
f 44/74/60 16/47/60 69/50/60 74/107/60
f 37/54/61 3/51/61 64/102/61 73/105/61
f 45/78/62 37/54/62 73/105/62 75/104/62
f 1/48/63 39/67/63 67/106/63 68/49/63
f 55/32/64 22/35/64 71/100/64 72/99/64
f 21/52/65 45/78/65 75/104/65 63/103/65
f 39/67/66 44/74/66 74/107/66 67/106/66
f 4/83/67 49/84/67 61/98/67 62/101/67
f 54/40/68 58/55/68 76/80/68 70/72/68
f 49/84/69 55/32/69 72/99/69 61/98/69
f 3/51/70 21/52/70 63/103/70 64/102/70
f 22/24/71 4/27/71 62/108/71 71/109/71
f 98/110/72 96/111/72 97/112/72 99/113/72
f 77/114/73 94/115/73 96/111/73 98/110/73 78/60/73
f 36/56/74 86/63/74 85/62/74 33/59/74 79/61/74 95/116/74 82/57/74
f 32/44/75 31/43/75 77/114/75 78/60/75
f 35/38/29 34/37/29 80/58/29 81/117/29
f 31/43/76 83/65/76 84/64/76 35/38/76 81/117/76 94/115/76 77/114/76
f 77/118/77 83/119/77 89/120/77 88/121/77
f 83/65/78 31/43/78 87/122/78 89/123/78
f 31/43/79 77/114/79 88/124/79 87/122/79
f 79/125/80 85/126/80 92/127/80 91/128/80
f 85/62/81 33/59/81 90/129/81 92/130/81
f 79/61/82 33/59/82 90/129/82 91/131/82
f 92/127/83 91/128/83 115/132/83
f 88/121/84 89/120/84 93/133/84
f 80/58/85 82/57/85 95/116/85 99/113/85 97/112/85
f 89/123/86 87/122/86 93/134/86
f 87/122/87 88/124/87 93/135/87
f 78/60/88 98/110/88 99/113/88 95/116/88 79/61/88
f 80/58/89 97/112/89 96/111/89 94/115/89 81/117/89
f 44/74/90 39/67/90 100/136/90 108/137/90
f 48/66/91 40/77/91 101/138/91 111/139/91
f 43/76/92 38/71/92 104/140/92 107/141/92
f 46/70/93 41/20/93 105/79/93 110/142/93
f 45/78/94 42/75/94 106/143/94 109/144/94
f 40/77/95 43/76/95 107/141/95 101/138/95
f 42/75/96 44/74/96 108/137/96 106/143/96
f 37/54/97 45/78/97 109/144/97 103/68/97
f 38/71/98 46/70/98 110/142/98 104/140/98
f 39/67/99 48/66/99 111/139/99 100/136/99
f 123/145/100 114/97/100 105/79/100 102/69/100
f 112/89/101 123/145/101 102/69/101 103/68/101
f 49/84/102 60/82/102 123/145/102 112/89/102
f 60/82/103 51/29/103 114/97/103 123/145/103
f 108/137/104 100/136/104 121/85/104 117/95/104
f 111/139/105 101/138/105 122/93/105 120/86/105
f 107/141/106 104/140/106 113/87/106 116/94/106
f 110/142/107 105/79/107 114/97/107 119/88/107
f 52/33/52 55/32/52 129/146/52 125/91/52
f 101/138/108 107/141/108 116/94/108 122/93/108
f 118/90/109 109/144/109 131/147/109 128/148/109
f 103/68/110 109/144/110 118/90/110 112/89/110
f 104/140/111 110/142/111 119/88/111 113/87/111
f 100/136/112 111/139/112 120/86/112 121/85/112
f 124/149/113 126/96/113 127/92/113 125/91/113
f 128/148/114 124/149/114 125/91/114 129/146/114
f 131/147/115 130/150/115 124/149/115 128/148/115
f 130/150/116 132/151/116 126/96/116 124/149/116
f 108/137/117 117/95/117 126/96/117 132/151/117
f 106/143/118 108/137/118 132/151/118 130/150/118
f 55/32/119 118/90/119 128/148/119 129/146/119
f 109/144/118 106/143/118 130/150/118 131/147/118
f 90/129/120 92/130/120 115/152/120
f 91/131/121 90/129/121 115/152/121
