# Blender v2.93.0 OBJ File: 'mohawk.blend'
# www.blender.org
mtllib mohawk.mtl
o Cube
v 4.936421 6.593714 0.002061
v 3.728737 -1.236712 -0.425177
v 3.728737 -1.236712 0.453561
v -4.317377 6.223448 -0.356159
v -3.608366 -1.107661 -0.693944
v -4.583961 6.628819 0.230772
v -3.608366 -1.107661 0.581947
v 1.279048 -0.412348 -0.849949
v 0.472806 6.861652 0.383492
v 1.001736 -0.369206 0.829340
v -1.532672 7.376305 -0.273348
v -1.556341 -0.362587 -0.794421
v -1.681910 7.128277 0.207842
v -1.544034 -0.419003 0.777839
v 1.483999 7.359415 -0.213625
v 2.080236 7.473101 0.378293
v -3.440436 7.169864 -0.000621
v 3.563441 6.575521 -0.363398
v 3.563441 7.193764 0.342595
v -5.791698 5.017306 0.109133
v 5.725666 5.155722 -0.172002
v 5.725666 5.155722 0.184393
v -5.791698 5.017306 -0.105739
v -0.027268 7.688313 0.000079
v 2.568265 7.713521 0.000079
vt 0.010902 0.423629
vt 0.023145 0.483795
vt 0.000000 0.441150
vt 0.444152 0.193204
vt 0.115851 0.099915
vt 0.146694 0.000000
vt 0.468566 0.120705
vt 0.156963 0.610717
vt 0.137184 0.843588
vt 0.115187 0.843588
vt 0.089287 0.610717
vt 0.000225 0.693863
vt 0.023175 0.610755
vt 0.069779 0.610717
vt 0.089287 0.693789
vt 0.983371 0.000000
vt 0.969942 0.167850
vt 0.951038 0.167850
vt 0.936761 0.000000
vt 0.909654 0.185048
vt 0.513670 0.106114
vt 0.599343 0.000000
vt 0.936761 0.101958
vt 0.891263 0.342580
vt 0.536238 0.305936
vt 0.889088 0.301785
vt 0.000071 0.851445
vt 0.000000 0.810657
vt 0.089062 0.810583
vt 0.089132 0.851371
vt 0.491859 0.126518
vt 0.472812 0.214928
vt 0.468566 0.169086
vt 0.902868 0.420685
vt 0.596931 0.511664
vt 0.520926 0.426678
vt 0.969084 0.251614
vt 0.973169 0.322537
vt 0.948374 0.322537
vt 0.441173 0.426755
vt 0.028635 0.504038
vt 0.037115 0.424012
vt 0.936761 0.491238
vt 0.613592 0.610776
vt 0.009226 1.000000
vt 0.009184 0.929540
vt 0.081356 0.927392
vt 0.076893 0.999944
vt 0.430758 0.226363
vt 0.048212 0.183675
vt 0.488753 0.246498
vt 0.505006 0.306274
vt 0.471395 0.306731
vt 0.420986 0.309943
vt 0.063555 0.304459
vt 0.047345 0.243943
vt 0.423302 0.269157
vt 0.519985 0.246160
vt 0.428391 0.390772
vt 0.046658 0.364187
vt 0.468566 0.509966
vt 0.130447 0.610717
vt 0.896761 0.220984
vt 0.510653 0.186300
vt 0.952335 0.251614
vt 0.144171 0.962380
vt 0.108310 0.962380
vt 0.524536 0.042757
vt 0.502000 0.487148
vt 0.021999 0.183292
vt 0.034521 0.123206
vt 0.055654 0.567690
vt 0.161534 0.691777
vt 0.190081 0.651733
vt 0.191334 0.691777
vt 0.291367 0.610717
vt 0.261567 0.649424
vt 0.261567 0.610717
vt 0.975715 0.381982
vt 0.975715 0.411409
vt 0.945914 0.411409
vt 0.291368 0.610717
vt 0.320375 0.610717
vt 0.320375 0.640518
vt 0.347813 0.610717
vt 0.347813 0.640518
vt 0.320375 0.640518
vt 0.945914 0.381982
vt 0.261567 0.651797
vt 0.225706 0.651797
vt 0.257573 0.610717
vt 0.021132 0.243560
vt 0.036914 0.304088
vt 0.003299 0.303516
vn 0.1538 0.7319 0.6638
vn -0.1176 0.0302 0.9926
vn -0.9419 -0.3358 0.0000
vn -0.3105 -0.9504 -0.0176
vn 0.9545 -0.2982 0.0000
vn 0.1376 0.0107 -0.9904
vn -0.0184 0.0672 -0.9976
vn 0.0000 -1.0000 -0.0041
vn 0.0673 0.3565 -0.9319
vn 0.0019 0.0672 -0.9977
vn 0.1632 0.7422 -0.6500
vn 0.0340 0.0527 0.9980
vn -0.1178 0.0343 -0.9924
vn 0.3293 -0.9440 -0.0201
vn -0.0051 0.0752 0.9972
vn 0.0191 0.6051 -0.7959
vn -0.0451 0.0665 0.9968
vn 0.0202 0.0811 -0.9965
vn -0.0196 0.0601 0.9980
vn 0.1176 0.0154 0.9929
vn -0.0406 0.0826 -0.9958
vn 0.8766 0.4811 0.0000
vn -0.6362 0.5824 -0.5060
vn 0.2461 0.2485 -0.9369
vn -0.1749 0.4842 -0.8573
vn -0.0864 0.5406 0.8369
vn 0.3530 0.3059 0.8842
vn -0.0322 0.8924 0.4500
vn 0.2296 0.5204 0.8225
vn -0.3346 0.9289 0.1587
vn -0.2534 0.8896 0.3800
vn -0.3495 0.9204 0.1753
vn 0.5267 0.6395 -0.5600
vn -0.4312 0.6389 -0.6371
vn -0.0238 0.4088 0.9123
usemtl Material
s off
f 16/1/1 19/2/1 25/3/1
f 14/4/2 6/5/2 20/6/2 7/7/2
f 7/8/3 20/9/3 23/10/3 5/11/3
f 8/12/4 2/13/4 3/14/4 10/15/4
f 2/16/5 21/17/5 22/18/5 3/19/5
f 8/20/6 18/21/6 21/22/6 2/23/6
f 12/24/7 11/25/7 8/26/7
f 12/27/8 8/28/8 10/29/8 14/30/8
f 18/31/9 15/32/9 25/33/9
f 12/34/10 4/35/10 11/36/10
f 1/37/11 18/38/11 19/39/11
f 10/40/12 19/41/12 16/42/12
f 5/43/13 23/44/13 4/35/13 12/34/13
f 5/45/14 12/46/14 14/47/14 7/48/14
f 14/49/15 13/50/15 6/5/15
f 15/51/16 11/52/16 24/53/16
f 10/54/17 9/55/17 13/56/17 14/57/17
f 8/26/18 11/25/18 15/58/18
f 10/59/19 16/42/19 9/60/19
f 3/61/20 22/62/20 19/41/20 10/40/20
f 8/63/21 15/64/21 18/21/21
f 1/65/22 22/18/22 21/17/22
f 6/66/23 4/67/23 23/10/23 20/9/23
f 18/31/24 1/68/24 21/22/24
f 17/69/25 11/36/25 4/35/25
f 13/70/26 17/71/26 6/5/26
f 1/72/27 19/41/27 22/62/27
f 11/73/28 17/74/28 13/75/28
f 15/76/29 24/77/29 9/78/29
f 25/79/30 15/80/30 16/81/30
f 24/82/31 11/83/31 13/84/31
f 15/85/32 9/86/32 16/87/32
f 18/38/33 25/88/33 19/39/33
f 4/89/34 6/90/34 17/91/34
f 13/92/35 9/93/35 24/94/35
