# Blender v2.93.0 OBJ File: 'sheep.blend'
# www.blender.org
mtllib sheep.mtl
o Cube
v 1.235856 0.430768 -0.052332
v 0.759714 -0.336116 -0.281963
v 1.235856 0.430768 0.185304
v 0.759714 -0.336116 0.419785
v -0.749908 0.687826 -0.121710
v -0.636259 -0.126782 0.067733
v -0.749908 0.687826 0.259532
v -0.402820 0.166395 0.581368
v 0.966176 0.621717 0.067372
v -0.789231 0.818866 -0.093519
v -0.791592 0.821090 0.227075
v 0.726952 -0.479532 -0.191509
v 0.726952 -0.479532 0.328454
v 0.041615 0.121348 0.675735
v 0.041615 0.121348 -0.537912
v -0.872962 0.725989 -0.057099
v -0.872962 0.725989 0.194921
v 0.191972 -0.297128 0.129783
v -0.076716 0.509584 0.679270
v -0.438344 0.923704 0.065832
v -0.076716 0.509584 -0.541447
v -0.119480 0.765004 0.541341
v -0.119480 0.765004 -0.403518
v -0.746945 0.452888 -0.315533
v 1.234091 0.173181 0.313590
v -0.402819 0.166395 -0.443546
v -0.443183 0.760601 0.417163
v -0.134420 -0.479532 -0.191509
v -0.265236 -0.155594 0.471655
v -0.435407 0.759675 -0.287651
v -0.134420 -0.479532 0.328454
v -0.567698 0.887370 0.224605
v -0.235469 -0.479532 -0.191509
v -0.567698 0.887370 -0.089861
v -0.235469 -0.479532 0.328454
v 0.820160 0.412906 -0.474487
v 0.440959 0.670544 -0.377692
v -0.746945 0.452888 0.453364
v 0.820160 0.412906 0.612309
v 0.440959 0.670544 0.515514
v 1.234091 0.173181 -0.180753
v 0.675116 -0.394542 0.393352
v 0.439803 0.739704 -0.096550
v 0.623057 -0.479532 0.328454
v 0.675116 -0.394542 -0.255530
v 0.439803 0.739704 0.230267
v 0.623057 -0.479532 -0.191509
v 0.720328 0.061630 0.745068
v 0.720328 0.061630 -0.607246
v 1.001603 -0.057931 0.587058
v 1.001603 -0.057931 -0.449235
v -0.685802 0.654033 0.185906
v 0.803140 -0.284281 0.358968
v -0.740169 0.921690 0.148159
v 0.734641 -0.479532 0.253722
v -0.928365 0.600076 0.122846
v -0.928365 0.716765 0.114295
v -0.050283 0.900632 0.185906
v 0.615368 -0.479532 0.253722
v -0.903896 0.373273 0.064672
v -0.685802 0.654033 -0.054241
v 0.803140 -0.284281 -0.230145
v -0.740169 0.921690 -0.016494
v 0.734641 -0.479532 -0.120824
v -0.928365 0.600076 0.008819
v -0.928365 0.716765 0.017370
v -0.050283 0.900632 -0.054241
v 0.615368 -0.479532 -0.120824
v -0.134420 -0.479532 -0.124647
v -0.235469 -0.479532 -0.124647
v -0.134420 -0.479532 0.254568
v -0.235469 -0.479532 0.254568
v 1.009890 -0.203203 -0.347021
v 1.009890 -0.203203 0.484993
v -0.733175 0.132071 -0.263390
v 0.113142 -0.168220 -0.357038
v 0.588263 -0.396584 0.071964
v -0.265236 -0.155594 -0.333682
v 0.632371 -0.156956 0.549284
v 0.632371 -0.156956 -0.411311
v -0.733175 0.132071 0.401353
v 0.750145 -0.230440 0.525210
v 0.750145 -0.230440 -0.387238
v 1.009749 -0.223768 0.223658
v -0.832792 0.148437 0.209300
v 1.009749 -0.223768 -0.093827
v -0.832792 0.148437 -0.079603
v -0.346744 -0.231449 0.309292
v -0.346744 -0.231449 -0.244306
v -0.346744 -0.231449 0.032493
v -0.077386 -0.264289 -0.057262
v -0.077386 -0.264289 0.219537
v 0.631585 -0.690180 0.340869
v 0.718424 -0.690180 0.340869
v 0.718424 -0.690180 -0.141562
v 0.718424 -0.690180 -0.203719
v -0.226941 -0.690180 0.340869
v -0.142947 -0.690180 0.340869
v -0.142947 -0.690180 0.276570
v -0.142947 -0.690180 -0.203719
v -0.226941 -0.690180 -0.203719
v -0.226941 -0.690180 0.276570
v 0.631585 -0.690180 -0.203719
v 0.631585 -0.690180 0.274869
v 0.718424 -0.690180 0.274869
v 0.631585 -0.690180 -0.141562
v -0.142947 -0.690180 -0.147468
v -0.226941 -0.690180 -0.147468
v -0.740169 0.921690 -0.016494
v -0.764171 0.945736 -0.160598
v -0.732112 0.911753 0.177350
v -0.764171 0.945736 0.289398
v -0.732112 0.911753 -0.045847
v -0.732548 0.843745 -0.141749
v -0.732548 0.843745 0.281273
v -0.741863 0.943360 -0.222928
v -0.741863 0.943360 0.350260
v -0.723497 0.927588 -0.219754
v -0.723497 0.927588 0.360746
v -0.794357 0.818866 -0.093519
v -0.745295 0.921690 -0.016494
v -0.769297 0.945736 -0.160598
v -0.737238 0.911753 -0.045847
v -0.737674 0.843745 -0.141749
v -0.746989 0.943360 -0.222928
v -0.728622 0.927588 -0.219754
v -0.798105 0.821090 0.227075
v -0.746683 0.921690 0.148159
v -0.770685 0.945736 0.289398
v -0.738625 0.911753 0.177350
v -0.739062 0.843745 0.281273
v -0.730010 0.927588 0.360746
v -0.748377 0.943360 0.350260
vt 0.812823 0.836128
vt 0.799447 0.824064
vt 0.812823 0.808381
vt 0.140771 0.455757
vt 0.207186 0.514539
vt 0.185109 0.540634
vt 0.140446 0.499996
vt 0.664373 0.409689
vt 0.818798 0.458821
vt 0.790709 0.536554
vt 0.721316 0.517241
vt 0.705584 0.907308
vt 0.729207 0.981091
vt 0.720962 1.000000
vt 0.642516 0.984751
vt 0.246499 0.050280
vt 0.220960 0.039483
vt 0.261405 0.026315
vt 0.275381 0.049674
vt 0.118928 0.024817
vt 0.038658 0.129329
vt 0.000000 0.032526
vt 0.050368 0.000000
vt 0.853665 0.502715
vt 0.855821 0.550527
vt 0.823041 0.555772
vt 0.319887 0.126477
vt 0.414984 0.006961
vt 0.447102 0.079402
vt 0.418474 0.224167
vt 0.796226 0.571717
vt 0.934850 0.902584
vt 0.907898 0.898633
vt 0.917616 0.845019
vt 0.940143 0.848322
vt 0.316593 0.294930
vt 0.258868 0.370697
vt 0.204241 0.265993
vt 0.267294 0.208475
vt 0.639101 0.884963
vt 0.599542 0.910997
vt 0.923125 0.734033
vt 0.942137 0.745948
vt 0.927137 0.788835
vt 0.907898 0.792668
vt 0.227593 0.868208
vt 0.227593 0.906221
vt 0.209964 0.893323
vt 0.878622 0.917943
vt 0.862007 0.937605
vt 0.829955 0.921079
vt 0.814668 0.900917
vt 0.218599 0.546463
vt 0.155497 0.921655
vt 0.151361 0.888167
vt 0.170929 0.872243
vt 0.188171 0.880256
vt 0.641533 0.094328
vt 0.696482 0.038878
vt 0.699277 0.113568
vt 0.650968 0.128016
vt 0.319887 0.437901
vt 0.248661 0.484888
vt 0.764232 0.344334
vt 0.832947 0.373593
vt 0.440290 0.354842
vt 0.356410 0.378825
vt 0.347704 0.230012
vt 0.134712 0.344902
vt 0.269720 0.797534
vt 0.289764 0.852835
vt 0.114025 0.821332
vt 0.162579 0.677313
vt 0.800408 0.112008
vt 0.675568 0.291569
vt 0.091288 0.387019
vt 0.037940 0.247947
vt 0.599270 0.808783
vt 0.599270 0.912503
vt 0.578174 0.887331
vt 0.282930 0.870418
vt 0.282959 0.890095
vt 0.227593 0.884356
vt 0.227619 0.867053
vt 0.483451 0.452488
vt 0.399506 0.458817
vt 0.500449 0.630642
vt 0.385945 0.607083
vt 0.495175 0.562067
vt 0.517041 0.790865
vt 0.458452 0.807194
vt 0.385945 0.736797
vt 0.495175 0.780385
vt 0.090434 0.695559
vt 0.036608 0.758726
vt 0.018290 0.713804
vt 0.448383 0.489453
vt 0.599542 0.094640
vt 0.577545 0.203847
vt 0.502571 0.214593
vt 0.458452 0.535274
vt 0.517041 0.551441
vt 0.000000 0.787968
vt 0.846174 0.226027
vt 0.122577 0.106300
vt 0.940143 0.934520
vt 0.919709 0.918149
vt 0.784338 0.000000
vt 0.855821 0.017810
vt 0.476132 0.000000
vt 0.192250 0.093989
vt 0.193755 0.057291
vt 0.599542 0.358533
vt 0.645644 0.496244
vt 0.529302 0.480241
vt 0.500449 0.713949
vt 0.502085 0.347807
vt 0.223113 0.931892
vt 0.192518 0.943854
vt 0.878622 0.854976
vt 0.814668 0.871019
vt 0.201955 0.852835
vt 0.623674 0.802201
vt 0.697564 0.836810
vt 0.734060 0.800201
vt 0.798111 0.856595
vt 0.748244 0.587486
vt 0.814668 0.571717
vt 0.814508 0.637897
vt 0.759946 0.601588
vt 0.514944 0.528121
vt 0.472576 0.532945
vt 0.319887 0.703083
vt 0.319887 0.640728
vt 0.798111 0.936457
vt 0.777803 0.941065
vt 0.540396 0.535274
vt 0.137203 0.906032
vt 0.110730 0.904986
vt 0.114274 0.852835
vt 0.136279 0.853704
vt 0.948532 0.484048
vt 0.931868 0.496514
vt 0.915464 0.437676
vt 0.933669 0.441240
vt 0.209370 0.494659
vt 0.257015 0.541075
vt 0.599542 0.351146
vt 0.580641 0.436128
vt 0.308205 0.000046
vt 0.319887 0.019570
vt 0.814668 0.854976
vt 0.891799 0.734033
vt 0.907898 0.854976
vt 0.309432 0.166777
vt 0.152787 0.549809
vt 0.289764 0.546463
vt 0.096210 0.623212
vt 0.053413 0.548235
vt 0.759946 0.756054
vt 0.599542 0.695973
vt 0.748244 0.771486
vt 0.814668 0.789872
vt 0.746366 0.800201
vt 0.725702 0.763982
vt 0.154850 0.002010
vt 0.814508 0.721142
vt 0.918308 0.288337
vt 0.941587 0.246853
vt 0.941587 0.357327
vt 0.407382 0.929488
vt 0.319887 0.929488
vt 0.332272 0.807194
vt 0.603820 0.107090
vt 0.613057 0.242325
vt 0.814668 0.626983
vt 0.946907 0.571717
vt 0.946907 0.734033
vt 0.894509 0.662286
vt 0.317953 0.546463
vt 0.317953 0.546463
vt 0.317953 0.546463
vt 0.570006 0.737614
vt 0.589292 0.735808
vt 0.589292 0.802017
vt 0.517041 0.808783
vt 0.913396 0.065920
vt 0.895868 0.065920
vt 0.855821 0.000000
vt 0.928387 0.000000
vt 0.041887 0.912262
vt 0.081673 0.950030
vt 0.001893 0.921000
vt 0.024563 0.905925
vt 0.304850 0.852835
vt 0.304850 0.938052
vt 0.460379 0.959764
vt 0.407382 0.887183
vt 0.460379 0.807194
vt 0.954518 0.556980
vt 0.920976 0.554109
vt 0.915464 0.523326
vt 0.954518 0.496514
vt 0.000000 0.950030
vt 0.043437 0.911852
vt 0.517041 0.618218
vt 0.592363 0.535274
vt 0.592363 0.680428
vt 0.024065 0.641457
vt 0.029841 0.569110
vt 0.855821 0.234415
vt 0.893612 0.174849
vt 0.919826 0.178691
vt 0.925117 0.241791
vt 0.517041 0.904097
vt 0.541644 0.860234
vt 0.567225 0.867060
vt 0.578174 0.938854
vt 0.151361 0.957264
vt 0.081673 0.957264
vt 0.908647 0.306231
vt 0.918308 0.385270
vt 0.855821 0.353011
vt 0.882812 0.300444
vt 0.879653 0.472799
vt 0.855821 0.418712
vt 0.898394 0.467836
vt 0.306934 0.705124
vt 0.289764 0.708728
vt 0.312243 0.644353
vt 0.289764 0.840750
vt 0.289764 0.817969
vt 0.307070 0.817984
vt 0.307070 0.840765
vt 0.908140 0.523953
vt 0.908140 0.545987
vt 0.891281 0.545972
vt 0.891281 0.523938
vt 0.798111 0.858909
vt 0.798111 0.836128
vt 0.814408 0.836143
vt 0.814408 0.858923
vt 0.812860 0.858936
vt 0.812860 0.880970
vt 0.798111 0.880957
vt 0.798111 0.858923
vt 0.896833 0.246853
vt 0.918308 0.251663
vt 0.942137 0.841255
vt 0.925233 0.845020
vt 0.932605 0.385270
vt 0.948532 0.388784
vt 0.956368 0.176553
vt 0.925118 0.176553
vt 0.929088 0.121236
vt 0.951840 0.121236
vt 0.903328 0.121236
vt 0.925117 0.124429
vt 0.040414 0.852835
vt 0.055735 0.858384
vt 0.915464 0.519619
vt 0.899154 0.523938
vt 0.460379 0.901434
vt 0.491652 0.901434
vt 0.488133 0.953815
vt 0.465364 0.953815
vt 0.556911 0.808783
vt 0.578174 0.814457
vt 0.312243 0.759623
vt 0.297798 0.762655
vt 0.570617 0.681999
vt 0.587401 0.680428
vt 0.916571 0.121236
vt 0.901824 0.121236
vt 0.317953 0.546463
vt 0.317953 0.546463
vt 0.317953 0.546463
vt 0.319134 0.580314
vt 0.319134 0.587074
vt 0.317953 0.588307
vt 0.317953 0.581547
vt 0.596733 0.566019
vt 0.592363 0.540077
vt 0.593700 0.539945
vt 0.598070 0.565887
vt 0.590989 0.695808
vt 0.598023 0.726715
vt 0.596326 0.726618
vt 0.589292 0.695711
vt 0.811487 0.836067
vt 0.798111 0.824002
vt 0.810956 0.800263
vt 0.809620 0.800201
vt 0.307070 0.838581
vt 0.314397 0.817969
vt 0.315919 0.818747
vt 0.308591 0.839359
vt 0.460379 0.865041
vt 0.516076 0.807194
vt 0.516076 0.901434
vt 0.317953 0.546463
vt 0.317953 0.644353
vt 0.289764 0.628442
vt 0.293203 0.555918
vt 0.877446 0.246853
vt 0.915464 0.385270
vt 0.597305 0.779935
vt 0.594853 0.787619
vt 0.593510 0.787551
vt 0.595962 0.779868
vt 0.597305 0.733766
vt 0.590634 0.749817
vt 0.589292 0.749750
vt 0.595962 0.733698
vt 0.596733 0.535406
vt 0.598070 0.535274
vt 0.855821 0.571558
vt 0.856508 0.555665
vt 0.862917 0.526318
vt 0.864900 0.523938
vt 0.873671 0.537766
vt 0.885179 0.566412
vt 0.891281 0.571558
vt 0.595125 0.733698
vt 0.593428 0.733602
vt 0.314397 0.858545
vt 0.315919 0.859323
vt 0.598023 0.680525
vt 0.596326 0.680428
vt 0.317953 0.580314
vt 0.317953 0.547201
vt 0.319492 0.546463
vt 0.319492 0.579577
vt 0.318853 0.817969
vt 0.289764 0.802705
vt 0.292586 0.787108
vt 0.310530 0.762655
vt 0.315255 0.764813
vt 0.318853 0.780630
vt 0.314880 0.810812
vt 0.931907 0.192331
vt 0.938335 0.177703
vt 0.942224 0.176553
vt 0.952781 0.204960
vt 0.954773 0.221760
vt 0.925117 0.221760
vt 0.902954 0.886751
vt 0.897555 0.901934
vt 0.893756 0.899715
vt 0.878622 0.873936
vt 0.902954 0.854976
vn -0.6471 0.6233 -0.4390
vn -0.3657 0.4628 -0.8075
vn -0.2688 0.3700 0.8893
vn -0.9145 0.3945 -0.0897
vn 0.0640 -0.5753 -0.8155
vn 0.6548 0.2619 -0.7090
vn -0.1886 0.6640 0.7236
vn 0.3494 0.8398 0.4154
vn -0.4443 0.0784 0.8925
vn 0.0000 0.0588 0.9983
vn -0.1572 -0.4674 -0.8700
vn -0.9050 -0.0699 -0.4196
vn 0.9032 -0.3828 0.1942
vn -0.8257 0.0412 0.5627
vn -0.2208 -0.6639 0.7145
vn -0.4503 0.0566 -0.8911
vn -0.7253 0.5717 -0.3836
vn 0.0776 -0.5945 0.8003
vn -0.4291 -0.3144 -0.8468
vn -0.3324 0.4045 0.8520
vn 0.2187 0.9225 0.3181
vn -0.3692 0.0869 -0.9253
vn -0.2192 -0.7492 0.6250
vn 0.0156 0.1725 0.9849
vn 0.1195 0.4926 -0.8620
vn -0.7347 -0.0098 -0.6783
vn -0.9970 -0.0542 0.0545
vn -0.1055 0.9199 0.3778
vn -0.3728 0.0908 0.9235
vn -0.3204 0.4080 -0.8549
vn 0.8661 -0.4983 0.0387
vn -0.3589 0.4690 0.8070
vn -0.2783 0.3635 -0.8891
vn 0.6302 -0.4224 -0.6514
vn 0.0263 -0.9107 0.4122
vn 0.2572 0.8751 0.4098
vn 0.5143 0.8332 -0.2029
vn 0.5346 0.1615 0.8295
vn 0.6341 -0.4200 0.6492
vn 0.0755 -0.6444 0.7609
vn 0.1195 0.4926 0.8620
vn 0.0156 0.1725 -0.9849
vn 0.0659 -0.5799 0.8120
vn 0.6600 0.2624 0.7040
vn 0.3488 0.8391 -0.4174
vn -0.1064 -0.5900 -0.8003
vn 0.5152 0.8334 0.2000
vn 0.5346 0.1615 -0.8295
vn 0.0773 -0.5948 -0.8001
vn -0.4289 -0.3141 0.8470
vn 0.2187 0.9758 0.0000
vn -0.2704 0.9627 0.0000
vn 0.8706 -0.4920 0.0000
vn 0.0593 0.9982 0.0000
vn 0.3120 0.9501 -0.0000
vn -0.7335 0.5817 0.3515
vn 0.2171 -0.9761 0.0000
vn -1.0000 0.0000 0.0000
vn -0.8138 -0.5811 0.0000
vn -0.9094 -0.0719 0.4096
vn 0.3843 -0.9223 0.0400
vn 0.1952 0.9808 0.0000
vn 1.0000 -0.0069 0.0000
vn -0.9150 0.3940 0.0871
vn -0.1871 0.6446 -0.7413
vn 0.0000 -0.1077 0.9942
vn 0.8964 -0.3911 -0.2086
vn -0.8041 0.0434 -0.5929
vn -0.2313 -0.6310 -0.7405
vn 0.2188 0.9208 -0.3227
vn -0.1048 0.9183 -0.3817
vn 0.8661 -0.4983 -0.0400
vn 0.2421 0.8809 -0.4067
vn -0.7365 0.6764 0.0000
vn -0.9535 -0.3015 0.0000
vn 0.5779 0.8161 0.0000
vn -0.7897 0.6135 0.0000
vn 0.0000 0.0579 -0.9983
vn -0.6941 -0.6523 0.3045
vn -0.5196 -0.7415 0.4244
vn -0.5430 -0.5266 -0.6541
vn -0.0057 -0.9669 -0.2551
vn 0.2396 -0.8370 -0.4919
vn 0.0210 -0.9998 0.0000
vn 0.1981 -0.6832 0.7028
vn 0.1980 -0.6827 -0.7033
vn 0.3847 -0.9223 -0.0378
vn -0.6532 -0.5052 0.5640
vn 0.2811 -0.9597 0.0000
vn -0.5193 -0.7404 -0.4268
vn -0.4395 -0.5468 0.7126
vn -0.6856 -0.6572 -0.3131
vn -0.0476 -0.9675 -0.2485
vn -0.1210 -0.9926 0.0000
vn -0.2434 -0.9699 0.0000
vn 0.0000 0.0000 1.0000
vn -0.9124 -0.4093 -0.0000
vn -0.9269 0.3053 -0.2185
vn -0.9307 0.2918 0.2206
vn -0.4632 0.8863 0.0000
vn -0.6778 0.2870 0.6769
vn -0.6933 0.2998 -0.6554
vn -0.3400 -0.9404 0.0000
vn 0.2495 0.2850 0.9255
vn 0.4556 0.2056 -0.8661
vn 0.1800 -0.4118 0.8933
vn 0.3808 -0.4142 -0.8267
vn 0.9666 -0.2561 0.0000
vn 0.0000 -1.0000 0.0000
vn 0.0000 -0.1039 -0.9946
vn 0.9970 -0.0542 0.0545
vn 0.9969 -0.0540 -0.0577
vn 0.0000 -0.0999 -0.9950
vn -0.9969 -0.0540 -0.0577
vn 0.9992 -0.0404 0.0000
vn 0.0000 -0.0980 0.9952
vn -0.9992 -0.0404 -0.0000
vn 0.0000 0.5536 0.8328
vn 0.0000 0.6812 0.7321
vn 0.0000 0.9570 -0.2902
vn 0.0000 0.8887 0.4584
vn 0.0000 0.5995 -0.8003
vn 0.0000 -0.6879 0.7258
vn -0.8414 -0.1074 0.5296
vn 0.2591 0.4080 0.8754
vn -0.5188 -0.3851 0.7632
vn 0.8148 0.0750 0.5748
vn 0.0000 -0.9472 0.3206
vn 0.0000 -0.9993 0.0381
vn 0.0000 0.1973 0.9803
vn 0.0000 -0.9588 -0.2840
vn 0.9676 -0.0235 0.2515
vn 0.0000 0.9467 0.3222
vn 0.0000 -0.9226 0.3857
vn 0.0000 0.9992 0.0390
vn 0.0000 -0.6172 -0.7868
vn -0.9680 0.0539 0.2451
vn 0.9758 0.0227 -0.2174
vn -0.9335 -0.3484 -0.0855
usemtl (null)
s off
f 114/1/1 10/2/1 113/3/1
usemtl Material
f 30/4/2 5/5/2 10/6/2 34/7/2
f 8/8/3 27/9/3 7/10/3 38/11/3
f 60/12/4 61/13/4 5/14/4 24/15/4
f 45/16/5 2/17/5 12/18/5 47/19/5
f 51/20/6 36/21/6 1/22/6 41/23/6
f 32/24/7 54/25/7 11/26/7
f 39/27/8 3/28/8 9/29/8 46/30/8
f 7/10/9 11/26/9 17/31/9
f 13/32/10 44/33/10 93/34/10 94/35/10
f 78/36/11 26/37/11 15/38/11 76/39/11
f 87/40/12 60/12/12 24/15/12 75/41/12
f 53/42/13 4/43/13 13/44/13 55/45/13
f 56/46/14 17/47/14 57/48/14
f 52/49/15 7/50/15 17/51/15 56/52/15
f 10/6/16 5/5/16 16/53/16
f 63/54/17 10/55/17 16/56/17 66/57/17
f 82/58/18 50/59/18 48/60/18 79/61/18
f 75/62/19 24/63/19 26/37/19 78/36/19
f 27/9/20 19/64/20 22/65/20
f 46/30/21 58/66/21 22/67/21 40/68/21
f 26/37/22 30/4/22 21/69/22 15/38/22
f 79/70/23 48/71/23 14/72/23 18/73/23
f 48/60/24 39/74/24 19/64/24 14/75/24
f 36/21/25 21/69/25 23/76/25 37/77/25
f 6/78/26 78/79/26 89/80/26
f 44/81/27 59/82/27 104/83/27 93/84/27
f 58/66/28 20/85/28 27/86/28 22/67/28
f 14/75/29 19/64/29 27/9/29 8/8/29
f 21/69/30 30/4/30 23/76/30
f 84/87/31 25/88/31 74/89/31
f 7/10/32 27/9/32 32/24/32 11/26/32
f 24/63/33 5/5/33 30/4/33 26/37/33
f 83/90/34 51/91/34 41/92/34 73/93/34
f 92/94/35 29/95/35 88/96/35
f 20/85/36 32/97/36 27/86/36
f 36/98/37 37/99/37 43/100/37
f 50/59/38 39/74/38 48/60/38
f 74/89/39 25/88/39 50/101/39 82/102/39
f 18/73/40 14/72/40 8/103/40 29/95/40
f 19/64/41 39/74/41 40/104/41 22/65/41
f 15/38/42 21/69/42 36/21/42 49/105/42
f 4/106/43 42/107/43 44/33/43 13/32/43
f 25/108/44 3/109/44 39/74/44 50/59/44
f 1/110/45 36/98/45 43/100/45 9/29/45
f 76/39/46 15/38/46 49/105/46 80/111/46
f 39/27/47 46/30/47 40/68/47
f 49/105/48 36/21/48 51/20/48
f 80/111/49 49/105/49 51/20/49 83/112/49
f 29/113/50 8/8/50 38/11/50 81/114/50
f 9/29/51 43/100/51 46/30/51
f 20/85/52 34/115/52 32/97/52
f 86/116/53 41/92/53 25/88/53 84/87/53
f 67/117/54 20/85/54 58/66/54
f 43/100/55 67/117/55 58/66/55 46/30/55
f 11/118/56 54/119/56 57/48/56 17/47/56
f 61/120/57 52/49/57 56/52/57 65/121/57
f 65/122/58 56/46/58 57/48/58 66/57/58
f 6/123/59 85/124/59 87/40/59
f 81/125/60 38/126/60 60/12/60 85/124/60
f 2/127/61 73/128/61 86/129/61 62/130/61
f 34/115/62 63/131/62 54/132/62 32/97/62
f 41/92/63 1/133/63 3/134/63 25/88/63
f 38/126/64 7/135/64 52/136/64 60/12/64
f 34/115/65 10/137/65 63/131/65
f 69/138/66 70/139/66 108/140/66 107/141/66
f 2/142/67 62/143/67 64/144/67 12/145/67
f 16/56/68 65/122/68 66/57/68
f 5/5/69 61/146/69 65/147/69 16/53/69
f 37/99/70 23/148/70 67/117/70 43/100/70
f 23/148/71 30/149/71 20/85/71 67/117/71
f 73/93/72 41/92/72 86/116/72
f 30/149/73 34/115/73 20/85/73
f 54/119/74 63/54/74 66/57/74 57/48/74
f 85/124/75 60/12/75 87/40/75
f 3/28/76 1/110/76 9/29/76
f 60/12/77 52/136/77 61/13/77
f 47/19/78 12/18/78 96/150/78 103/151/78
f 6/123/79 81/125/79 85/124/79
f 6/152/80 29/153/80 81/154/80
f 18/155/81 80/111/81 83/112/81 45/16/81
f 18/73/82 76/156/82 80/157/82
f 91/158/83 78/159/83 18/73/83
f 53/160/84 18/161/84 62/130/84
f 4/162/85 74/163/85 82/164/85 42/165/85
f 45/16/86 83/112/86 73/166/86 2/17/86
f 53/160/87 84/167/87 74/163/87 4/162/87
f 88/168/88 29/169/88 6/170/88
f 53/160/89 62/130/89 86/129/89 84/167/89
f 6/171/90 75/172/90 78/173/90
f 42/174/91 82/58/91 79/61/91 18/175/91
f 6/123/92 87/40/92 75/41/92
f 18/73/93 78/159/93 76/156/93
f 92/94/94 91/158/94 18/73/94
f 42/176/95 18/177/95 45/178/95 77/179/95
f 89/180/96 90/181/96 88/182/96
f 72/183/97 35/184/97 88/185/97 90/186/97
f 33/187/97 70/188/97 90/189/97 89/190/97
f 68/191/98 77/192/98 45/193/98 47/194/98
f 59/82/99 44/81/99 42/195/99 77/196/99
f 62/197/100 77/198/100 53/199/100
f 77/200/101 59/201/101 55/202/101 53/203/101
f 77/192/102 62/204/102 64/205/102 68/191/102
f 6/206/103 89/207/103 88/208/103
f 88/96/94 90/209/94 89/210/94 91/158/94 92/94/94
f 89/210/83 78/159/83 91/158/83
f 18/73/35 29/95/35 92/94/35
f 88/211/104 35/212/104 31/213/104 92/214/104
f 91/215/105 28/216/105 33/217/105 89/218/105
f 70/139/106 69/138/106 91/219/106 90/220/106
f 72/221/107 90/222/107 92/223/107 71/224/107
f 71/225/108 92/226/108 31/227/108
f 69/228/108 28/229/108 91/230/108
f 104/231/109 105/232/109 94/233/109 93/234/109
f 102/235/109 99/236/109 98/237/109 97/238/109
f 103/239/109 96/240/109 95/241/109 106/242/109
f 101/243/109 100/244/109 107/245/109 108/246/109
f 72/221/110 71/224/110 99/247/110 102/248/110
f 55/45/111 13/44/111 94/249/111 105/250/111
f 12/145/112 64/144/112 95/251/112 96/252/112
f 59/253/113 55/254/113 105/255/113 104/256/113
f 31/213/10 35/212/10 97/257/10 98/258/10
f 68/191/114 47/194/114 103/259/114 106/260/114
f 71/225/115 31/227/115 98/261/115 99/262/115
f 64/263/116 68/264/116 106/265/116 95/266/116
f 33/217/78 28/216/78 100/267/78 101/268/78
f 28/229/115 69/228/115 107/269/115 100/270/115
f 35/184/117 72/183/117 102/271/117 97/272/117
f 70/188/117 33/187/117 101/273/117 108/274/117
f 63/275/96 10/276/96 109/277/96
f 119/278/118 117/279/118 133/280/118 132/281/118
f 114/282/119 118/283/119 126/284/119 124/285/119
f 112/286/120 111/287/120 130/288/120 129/289/120
f 10/2/121 114/1/121 124/290/121 120/291/121
f 109/292/122 10/2/122 120/291/122 121/293/122
f 115/294/123 119/295/123 132/296/123 131/297/123
f 91/298/124 78/299/124 28/300/124
f 28/301/125 78/302/125 89/303/125 33/304/125
f 31/213/126 29/305/126 88/211/126 35/212/126
f 29/306/127 31/227/127 92/226/127
f 113/307/128 109/308/128 121/309/128 123/310/128
f 116/311/129 110/312/129 122/313/129 125/314/129
f 118/283/130 116/315/130 125/316/130 126/284/130
f 110/312/131 113/307/131 123/310/131 122/313/131
f 120/317/132 124/318/132 126/319/132 125/320/132 122/321/132 123/322/132 121/323/132
f 111/287/133 54/324/133 128/325/133 130/288/133
f 11/326/134 115/294/134 131/297/134 127/327/134
f 117/328/135 112/286/135 129/289/135 133/329/135
f 54/330/136 11/331/136 127/332/136 128/333/136
f 128/334/137 127/335/137 131/336/137 132/337/137 133/338/137 129/339/137 130/340/137
f 112/341/138 117/342/138 119/343/138 115/344/138 11/345/138 111/346/138
f 110/347/139 116/348/139 118/349/139 114/350/139 113/351/139
