# 3ds Max Wavefront OBJ Exporter v0.97b - (c)2007 guruware
# File Created: 16.12.2019 23:54:26

mtllib Santa_Hat__corona.mtl

#
# object Santa_Hat_001
#

#
# object Santa_Hat_002
#

v  -13.4882 11.5247 19.9274
v  -24.9933 11.5247 0.0000
v  -20.7643 25.6815 0.0000
v  -11.3737 23.8776 16.5624
v  9.5220 11.5247 19.9274
v  7.4075 20.2698 16.5624
v  -13.4882 11.5247 -19.9274
v  -11.3737 23.8776 -16.5624
v  9.5220 11.5247 -19.9274
v  7.4075 20.2698 -16.5624
v  21.0271 11.5247 -0.0000
v  16.7981 18.4659 -0.0000
v  -13.4071 34.6293 0.0000
v  -7.5698 31.8980 11.1625
v  3.8542 27.9794 11.1625
v  -7.5698 31.8980 -11.1625
v  3.8542 27.9794 -11.1625
v  9.6915 25.2481 -0.0000
v  -7.9835 38.9329 0.0000
v  -4.9833 35.9466 7.3319
v  1.0171 31.9792 7.3319
v  -4.9833 35.9466 -7.3319
v  1.0171 31.9792 -7.3319
v  4.0173 28.9929 -0.0000
v  -1.9631 38.3921 0.0000
v  0.6792 35.7620 6.4573
v  5.9638 28.3894 6.4573
v  0.6792 35.7620 -6.4573
v  5.9638 28.3894 -6.4573
v  8.6061 25.7593 -0.0000
v  14.7750 24.8959 -0.0000
v  14.1547 23.7280 2.2905
v  12.9143 23.5460 2.2905
v  14.1547 23.7280 -2.2905
v  12.9143 23.5460 -2.2905
v  12.2940 22.3780 -0.0000
v  22.6384 18.3398 -0.0000
v  22.0497 17.9751 1.1996
v  20.8722 17.2456 1.1996
v  22.0497 17.9751 -1.1996
v  20.8722 17.2456 -1.1996
v  20.2835 16.8808 -0.0000
# 42 vertices

vn 0.4786 -0.3061 -0.8229
vn 0.9582 -0.2862 -0.0000
vn 0.8906 -0.4548 -0.0000
vn 0.4042 -0.4559 -0.7930
vn -0.4585 -0.4135 -0.7866
vn -0.4863 -0.5111 -0.7087
vn 0.4786 -0.3061 0.8229
vn 0.4042 -0.4559 0.7930
vn -0.4585 -0.4135 0.7866
vn -0.4863 -0.5111 0.7087
vn -0.8540 -0.5203 0.0000
vn -0.7980 -0.6026 0.0000
vn 0.7089 -0.7053 -0.0000
vn 0.2232 -0.6675 -0.7104
vn -0.5237 -0.6842 -0.5075
vn 0.2232 -0.6675 0.7104
vn -0.5237 -0.6842 0.5075
vn -0.6451 -0.7641 0.0000
vn 0.3333 -0.9428 -0.0000
vn 0.0415 -0.7768 -0.6284
vn -0.6214 -0.7813 -0.0585
vn 0.0415 -0.7768 0.6284
vn -0.6214 -0.7813 0.0585
vn 0.8828 -0.4698 -0.0000
vn -0.2963 -0.9551 -0.0000
vn -0.4121 -0.6560 -0.6324
vn -0.1157 0.4320 -0.8944
vn -0.4121 -0.6560 0.6324
vn -0.1157 0.4320 0.8944
vn 0.6436 0.7653 0.0000
vn -0.6337 -0.7736 -0.0000
vn -0.3834 -0.2562 -0.8873
vn 0.1710 0.6743 -0.7184
vn -0.3834 -0.2562 0.8873
vn 0.1710 0.6743 0.7184
vn 0.6197 0.7848 -0.0000
vn -0.6404 -0.7681 -0.0000
vn -0.4265 -0.4350 -0.7930
vn 0.2173 0.4265 -0.8780
vn -0.4265 -0.4350 0.7930
vn 0.2173 0.4265 0.8780
vn 0.5668 0.8238 0.0000
# 42 vertex normals

o Santa_Hat_002
g Santa_Hat_002
usemtl wire_225088199
s off
f 1//1 2//2 3//3 4//4 
f 5//5 1//1 4//4 6//6 
f 2//2 7//7 8//8 3//3 
f 7//7 9//9 10//10 8//8 
f 9//9 11//11 12//12 10//10 
f 11//11 5//5 6//6 12//12 
f 4//4 3//3 13//13 14//14 
f 6//6 4//4 14//14 15//15 
f 3//3 8//8 16//16 13//13 
f 8//8 10//10 17//17 16//16 
f 10//10 12//12 18//18 17//17 
f 12//12 6//6 15//15 18//18 
f 14//14 13//13 19//19 20//20 
f 15//15 14//14 20//20 21//21 
f 13//13 16//16 22//22 19//19 
f 16//16 17//17 23//23 22//22 
f 17//17 18//18 24//24 23//23 
f 18//18 15//15 21//21 24//24 
f 20//20 19//19 25//25 26//26 
f 21//21 20//20 26//26 27//27 
f 19//19 22//22 28//28 25//25 
f 22//22 23//23 29//29 28//28 
f 23//23 24//24 30//30 29//29 
f 24//24 21//21 27//27 30//30 
f 26//26 25//25 31//31 32//32 
f 27//27 26//26 32//32 33//33 
f 25//25 28//28 34//34 31//31 
f 28//28 29//29 35//35 34//34 
f 29//29 30//30 36//36 35//35 
f 30//30 27//27 33//33 36//36 
f 32//32 31//31 37//37 38//38 
f 33//33 32//32 38//38 39//39 
f 31//31 34//34 40//40 37//37 
f 34//34 35//35 41//41 40//40 
f 35//35 36//36 42//42 41//41 
f 36//36 33//33 39//39 42//42 
# 36 polygons

#
# object Santa_Hat_003
#

v  21.4380 14.3702 3.0584
v  19.9646 13.3970 0.0000
v  19.8294 15.8883 0.0000
v  20.7771 16.5142 1.9670
v  24.3848 16.3164 3.0584
v  22.6723 17.7659 1.9670
v  21.4380 14.3702 -3.0584
v  20.7771 16.5142 -1.9670
v  24.3848 16.3164 -3.0584
v  22.6723 17.7659 -1.9670
v  25.8582 17.2895 -0.0000
v  23.6199 18.3918 -0.0000
v  20.6526 17.4888 0.0000
v  20.9456 17.6823 0.6083
v  21.5317 18.0694 0.6083
v  20.9456 17.6823 -0.6083
v  21.5317 18.0694 -0.6083
v  21.8248 18.2630 -0.0000
v  23.1504 12.9206 1.9670
v  22.2028 12.2948 0.0000
v  25.0457 14.1724 1.9670
v  23.1504 12.9206 -1.9670
v  25.0457 14.1724 -1.9670
v  25.9933 14.7982 -0.0000
v  24.2910 12.6171 0.6083
v  23.9979 12.4236 0.0000
v  24.8771 13.0042 0.6083
v  24.2910 12.6171 -0.6083
v  24.8771 13.0042 -0.6083
v  25.1701 13.1978 -0.0000
# 30 vertices

vn 0.6384 -0.1837 -0.7474
vn 0.9985 0.0542 -0.0000
vn 0.9880 -0.1542 -0.0000
vn 0.6795 -0.3580 -0.6404
vn -0.0817 -0.6593 -0.7474
vn 0.0625 -0.7655 -0.6404
vn 0.6384 -0.1837 0.7474
vn 0.6795 -0.3580 0.6404
vn -0.0817 -0.6593 0.7474
vn 0.0625 -0.7655 0.6404
vn -0.4418 -0.8971 0.0000
vn -0.2460 -0.9693 0.0000
vn 0.7945 -0.6073 0.0000
vn 0.6575 -0.6978 -0.2843
vn 0.3836 -0.8786 -0.2843
vn 0.6575 -0.6978 0.2843
vn 0.3836 -0.8786 0.2843
vn 0.2467 -0.9691 0.0000
vn 0.0817 0.6593 -0.7474
vn -0.0625 0.7655 -0.6404
vn 0.2460 0.9693 -0.0000
vn 0.4418 0.8971 -0.0000
vn -0.6384 0.1837 -0.7474
vn -0.6795 0.3580 -0.6404
vn -0.0625 0.7655 0.6404
vn 0.0817 0.6593 0.7474
vn -0.6795 0.3580 0.6404
vn -0.6384 0.1837 0.7474
vn -0.9880 0.1542 0.0000
vn -0.9985 -0.0542 0.0000
vn -0.3836 0.8786 -0.2843
vn -0.2467 0.9691 -0.0000
vn -0.6575 0.6978 -0.2843
vn -0.3836 0.8786 0.2843
vn -0.6575 0.6978 0.2843
vn -0.7945 0.6073 0.0000
# 36 vertex normals

o Santa_Hat_003
g Santa_Hat_003
usemtl wire_196088225
s off
f 43//43 44//44 45//45 46//46 
f 47//47 43//43 46//46 48//48 
f 44//44 49//49 50//50 45//45 
f 49//49 51//51 52//52 50//50 
f 51//51 53//53 54//54 52//52 
f 53//53 47//47 48//48 54//54 
f 46//46 45//45 55//55 56//56 
f 48//48 46//46 56//56 57//57 
f 45//45 50//50 58//58 55//55 
f 50//50 52//52 59//59 58//58 
f 52//52 54//54 60//60 59//59 
f 54//54 48//48 57//57 60//60 
f 60//60 57//57 56//56 55//55 58//58 59//59 
f 43//61 61//62 62//63 44//64 
f 47//65 63//66 61//62 43//61 
f 44//64 62//63 64//67 49//68 
f 49//68 64//67 65//69 51//70 
f 51//70 65//69 66//71 53//72 
f 53//72 66//71 63//66 47//65 
f 61//62 67//73 68//74 62//63 
f 63//66 69//75 67//73 61//62 
f 62//63 68//74 70//76 64//67 
f 64//67 70//76 71//77 65//69 
f 65//69 71//77 72//78 66//71 
f 66//71 72//78 69//75 63//66 
f 72//78 71//77 70//76 68//74 67//73 69//75 
# 26 polygons

#
# object Santa_Hat_004
#

v  -13.9882 0.0001 20.7935
v  -25.9933 0.0001 0.0000
v  -25.9933 11.5247 0.0000
v  -13.9882 11.5247 20.7935
v  10.0220 0.0001 20.7935
v  10.0220 11.5247 20.7935
v  -13.9882 0.0001 -20.7935
v  -13.9882 11.5247 -20.7935
v  10.0220 0.0001 -20.7935
v  10.0220 11.5247 -20.7935
v  22.0271 0.0001 -0.0000
v  22.0271 11.5247 -0.0000
v  -13.4882 0.0001 19.9274
v  -24.9933 0.0001 0.0000
v  -13.4882 0.0001 -19.9274
v  9.5220 0.0001 -19.9274
v  21.0271 0.0001 -0.0000
v  9.5220 0.0001 19.9274
v  -24.9933 11.5247 0.0000
v  -13.4882 11.5247 19.9274
v  9.5220 11.5247 19.9274
v  21.0271 11.5247 -0.0000
v  9.5220 11.5247 -19.9274
v  -13.4882 11.5247 -19.9274
# 24 vertices

vn 0.3962 0.6100 -0.6862
vn 0.7924 0.6100 -0.0000
vn 0.7924 -0.6100 -0.0000
vn 0.3962 -0.6100 -0.6862
vn -0.3962 0.6100 -0.6862
vn -0.3962 -0.6100 -0.6862
vn 0.3962 0.6100 0.6862
vn 0.3962 -0.6100 0.6862
vn -0.3962 0.6100 0.6862
vn -0.3962 -0.6100 0.6862
vn -0.7924 0.6100 0.0000
vn -0.7924 -0.6100 0.0000
vn 0.0000 1.0000 -0.0000
vn 0.0000 -1.0000 -0.0000
# 14 vertex normals

o Santa_Hat_004
g Santa_Hat_004
usemtl Material__5
s off
f 73//79 74//80 75//81 76//82 
f 77//83 73//79 76//82 78//84 
f 74//80 79//85 80//86 75//81 
usemtl wire_225088199
f 79//85 81//87 82//88 80//86 
usemtl Material__5
f 81//87 83//89 84//90 82//88 
f 83//89 77//83 78//84 84//90 
f 85//91 86//91 74//80 73//79 
f 86//91 87//91 79//85 74//80 
f 87//91 88//91 81//87 79//85 
f 88//91 89//91 83//89 81//87 
f 89//91 90//91 77//83 83//89 
f 90//91 85//91 73//79 77//83 
f 91//92 92//92 76//82 75//81 
f 92//92 93//92 78//84 76//82 
f 93//92 94//92 84//90 78//84 
f 94//92 95//92 82//88 84//90 
f 95//92 96//92 80//86 82//88 
f 96//92 91//92 75//81 80//86 
# 18 polygons

#
# object Santa_Hat_005
#

